# xmcd
#
# Track frame offsets:
#	150
#	16112
#	30251
#	43202
#	61235
#	74367
#	86578
#	100600
#	115052
#	133083
#	147574
#	163233
#	178763
#	198945
#	211198
#	224092
#	242405
#	258897
#	275915
#	292300
#
# Disc length: 4099 seconds
#
# Revision: 1
# Processed by: cddbd v1.5.2PL0 Copyright (c) Steve Scherf et al.
# Submitted via: EasyCDDAExtractor 10.0.5.1
#
DISCID=33100114
DTITLE=Various Artist - Dansesommer!
DYEAR=2005
DGENRE=Danseband
TTITLE0=Picazzo - Sommerdommer'n
TTITLE1=Trond Erics - Søndag
TTITLE2=Anne Nørdsti - Hvor tok alle åra veien
TTITLE3=Rikingan - Hjem langt mot nord
TTITLE4=Dænsebændet - Et bittelite miniskjørt
TTITLE5=Nordans - Syvers lørdagsdans
TTITLE6=Ingemars - Hæffer skær vi slærve og skravle
TTITLE7=Can Dance - Eventyr
TTITLE8=Picazzo - Norske jenter
TTITLE9=Joe Bjørnars - Kyss meg bak
TTITLE10=Ole Ivars - Kongen av campingplassen
TTITLE11=Anne Nørdsti - Nyt meg fra veggen i ramme og glass
TTITLE12=Scandinavia - Kjærlighet gjør blind
TTITLE13=Ingemars - Frædagskvæll
TTITLE14=Trond Erics - Donna Bella Donna
TTITLE15=3 Busserulls - De små fagre gudsord fra landet
TTITLE16=Swingers - Ingen vei tilbake
TTITLE17=Åsmund Åmli Band - Stomp og vatn
TTITLE18=Ingemars - Nå og heile livet
TTITLE19=E-76 - Byturen
EXTD=YEAR: 2005
EXTT0=
EXTT1=
EXTT2=
EXTT3=
EXTT4=
EXTT5=
EXTT6=
EXTT7=
EXTT8=
EXTT9=
EXTT10=
EXTT11=
EXTT12=
EXTT13=
EXTT14=
EXTT15=
EXTT16=
EXTT17=
EXTT18=
EXTT19=
PLAYORDER=
